<svg width="120" height="20" viewBox="0 0 120 20" fill="none" xmlns="http://www.w3.org/2000/svg">
<g clip-path="url(#clip0_1_271)">
<g filter="url(#filter0_f_1_271)">
<path d="M102 5H107.146C108.282 5 109.323 5.64872 109.601 6.75061C109.813 7.59297 110 8.70303 110 10C110 11.297 109.813 12.407 109.601 13.2494C109.323 14.3513 108.282 15 107.146 15H102V5Z" fill="white"/>
</g>
<g filter="url(#filter1_f_1_271)">
<path class='color-changeable' d="M102 5H107.146C108.282 5 109.323 5.64872 109.601 6.75061C109.813 7.59297 110 8.70303 110 10C110 11.297 109.813 12.407 109.601 13.2494C109.323 14.3513 108.282 15 107.146 15H102V5Z" fill="white"/>
</g>
<g filter="url(#filter2_f_1_271)">
<path class='color-changeable' d="M102 5H107.146C108.282 5 109.323 5.64872 109.601 6.75061C109.813 7.59297 110 8.70303 110 10C110 11.297 109.813 12.407 109.601 13.2494C109.323 14.3513 108.282 15 107.146 15H102V5Z" fill="white"/>
</g>
<g filter="url(#filter3_iiii_1_271)">
<path d="M0 1H82.3579C83.4414 1 84.5135 1.22006 85.5093 1.64684L91 4H101C101.552 4 102 4.44772 102 5V15C102 15.5523 101.552 16 101 16H91L85.5093 18.3532C84.5135 18.7799 83.4414 19 82.3579 19H0V1Z" fill="#3E3F3F"/>
</g>
<rect class='color-changeable' x="76" y="1" width="4" height="18" rx="0.5" fill="white"/>
<path class='color-changeable' d="M102 5H107.146C108.282 5 109.323 5.64872 109.601 6.75061C109.813 7.59297 110 8.70303 110 10C110 11.297 109.813 12.407 109.601 13.2494C109.323 14.3513 108.282 15 107.146 15H102V5Z" fill="white"/>
</g>
<defs>
<filter id="filter0_f_1_271" x="96" y="-1" width="20" height="22" filterUnits="userSpaceOnUse" color-interpolation-filters="sRGB">
<feFlood flood-opacity="0" result="BackgroundImageFix"/>
<feBlend mode="normal" in="SourceGraphic" in2="BackgroundImageFix" result="shape"/>
<feGaussianBlur stdDeviation="3" result="effect1_foregroundBlur_1_271"/>
</filter>
<filter id="filter1_f_1_271" x="96" y="-1" width="20" height="22" filterUnits="userSpaceOnUse" color-interpolation-filters="sRGB">
<feFlood flood-opacity="0" result="BackgroundImageFix"/>
<feBlend mode="normal" in="SourceGraphic" in2="BackgroundImageFix" result="shape"/>
<feGaussianBlur stdDeviation="3" result="effect1_foregroundBlur_1_271"/>
</filter>
<filter id="filter2_f_1_271" x="96" y="-1" width="20" height="22" filterUnits="userSpaceOnUse" color-interpolation-filters="sRGB">
<feFlood flood-opacity="0" result="BackgroundImageFix"/>
<feBlend mode="normal" in="SourceGraphic" in2="BackgroundImageFix" result="shape"/>
<feGaussianBlur stdDeviation="3" result="effect1_foregroundBlur_1_271"/>
</filter>
<filter id="filter3_iiii_1_271" x="0" y="-4" width="105" height="28" filterUnits="userSpaceOnUse" color-interpolation-filters="sRGB">
<feFlood flood-opacity="0" result="BackgroundImageFix"/>
<feBlend mode="normal" in="SourceGraphic" in2="BackgroundImageFix" result="shape"/>
<feColorMatrix in="SourceAlpha" type="matrix" values="0 0 0 0 0 0 0 0 0 0 0 0 0 0 0 0 0 0 127 0" result="hardAlpha"/>
<feOffset dx="1" dy="5"/>
<feGaussianBlur stdDeviation="3"/>
<feComposite in2="hardAlpha" operator="arithmetic" k2="-1" k3="1"/>
<feColorMatrix type="matrix" values="0 0 0 0 0.137255 0 0 0 0 0.145098 0 0 0 0 0.14902 0 0 0 1 0"/>
<feBlend mode="normal" in2="shape" result="effect1_innerShadow_1_271"/>
<feColorMatrix in="SourceAlpha" type="matrix" values="0 0 0 0 0 0 0 0 0 0 0 0 0 0 0 0 0 0 127 0" result="hardAlpha"/>
<feOffset dx="3" dy="-5"/>
<feGaussianBlur stdDeviation="3"/>
<feComposite in2="hardAlpha" operator="arithmetic" k2="-1" k3="1"/>
<feColorMatrix type="matrix" values="0 0 0 0 0.137255 0 0 0 0 0.145098 0 0 0 0 0.14902 0 0 0 1 0"/>
<feBlend mode="normal" in2="effect1_innerShadow_1_271" result="effect2_innerShadow_1_271"/>
<feColorMatrix in="SourceAlpha" type="matrix" values="0 0 0 0 0 0 0 0 0 0 0 0 0 0 0 0 0 0 127 0" result="hardAlpha"/>
<feOffset dx="1" dy="-1"/>
<feGaussianBlur stdDeviation="0.5"/>
<feComposite in2="hardAlpha" operator="arithmetic" k2="-1" k3="1"/>
<feColorMatrix type="matrix" values="0 0 0 0 0.242217 0 0 0 0 0.247242 0 0 0 0 0.247101 0 0 0 1 0"/>
<feBlend mode="normal" in2="effect2_innerShadow_1_271" result="effect3_innerShadow_1_271"/>
<feColorMatrix in="SourceAlpha" type="matrix" values="0 0 0 0 0 0 0 0 0 0 0 0 0 0 0 0 0 0 127 0" result="hardAlpha"/>
<feOffset dx="1" dy="1"/>
<feGaussianBlur stdDeviation="0.5"/>
<feComposite in2="hardAlpha" operator="arithmetic" k2="-1" k3="1"/>
<feColorMatrix type="matrix" values="0 0 0 0 0.242217 0 0 0 0 0.247242 0 0 0 0 0.247101 0 0 0 1 0"/>
<feBlend mode="normal" in2="effect3_innerShadow_1_271" result="effect4_innerShadow_1_271"/>
</filter>
<clipPath id="clip0_1_271">
<rect class='color-changeable' width="20" height="120" fill="white" transform="matrix(0 1 -1 0 120 0)"/>
</clipPath>
</defs>
</svg>
