<svg width="120" height="20" viewBox="0 0 120 20" fill="none" xmlns="http://www.w3.org/2000/svg">
<g clip-path="url(#clip0_1_225)">
<g filter="url(#filter0_iiii_1_225)">
<path d="M0 1H80L110.2 8.44653C112.048 8.90213 112.971 9.12994 113.185 9.49307C113.369 9.80597 113.369 10.194 113.185 10.5069C112.971 10.8701 112.048 11.0979 110.2 11.5535L80 19H0V1Z" fill="#3E3F3F"/>
</g>
<path class='color-changeable' d="M112.564 10.9709L103.474 13.2132C103.21 13.2782 102.944 13.121 102.883 12.8566C102.736 12.2146 102.5 11.0296 102.5 10C102.5 8.9705 102.736 7.78549 102.883 7.14344C102.944 6.87906 103.21 6.72187 103.474 6.78685L112.564 9.02913C113.578 9.27925 113.578 10.7208 112.564 10.9709Z" fill="white"/>
<rect class='color-changeable' x="76" y="1" width="4" height="18" rx="0.5" fill="white"/>
</g>
<defs>
<filter id="filter0_iiii_1_225" x="0" y="-4" width="116.323" height="28" filterUnits="userSpaceOnUse" color-interpolation-filters="sRGB">
<feFlood flood-opacity="0" result="BackgroundImageFix"/>
<feBlend mode="normal" in="SourceGraphic" in2="BackgroundImageFix" result="shape"/>
<feColorMatrix in="SourceAlpha" type="matrix" values="0 0 0 0 0 0 0 0 0 0 0 0 0 0 0 0 0 0 127 0" result="hardAlpha"/>
<feOffset dx="1" dy="5"/>
<feGaussianBlur stdDeviation="3"/>
<feComposite in2="hardAlpha" operator="arithmetic" k2="-1" k3="1"/>
<feColorMatrix type="matrix" values="0 0 0 0 0.137255 0 0 0 0 0.145098 0 0 0 0 0.14902 0 0 0 1 0"/>
<feBlend mode="normal" in2="shape" result="effect1_innerShadow_1_225"/>
<feColorMatrix in="SourceAlpha" type="matrix" values="0 0 0 0 0 0 0 0 0 0 0 0 0 0 0 0 0 0 127 0" result="hardAlpha"/>
<feOffset dx="3" dy="-5"/>
<feGaussianBlur stdDeviation="3"/>
<feComposite in2="hardAlpha" operator="arithmetic" k2="-1" k3="1"/>
<feColorMatrix type="matrix" values="0 0 0 0 0.137255 0 0 0 0 0.145098 0 0 0 0 0.14902 0 0 0 1 0"/>
<feBlend mode="normal" in2="effect1_innerShadow_1_225" result="effect2_innerShadow_1_225"/>
<feColorMatrix in="SourceAlpha" type="matrix" values="0 0 0 0 0 0 0 0 0 0 0 0 0 0 0 0 0 0 127 0" result="hardAlpha"/>
<feOffset dx="1" dy="-1"/>
<feGaussianBlur stdDeviation="0.5"/>
<feComposite in2="hardAlpha" operator="arithmetic" k2="-1" k3="1"/>
<feColorMatrix type="matrix" values="0 0 0 0 0.242217 0 0 0 0 0.247242 0 0 0 0 0.247101 0 0 0 1 0"/>
<feBlend mode="normal" in2="effect2_innerShadow_1_225" result="effect3_innerShadow_1_225"/>
<feColorMatrix in="SourceAlpha" type="matrix" values="0 0 0 0 0 0 0 0 0 0 0 0 0 0 0 0 0 0 127 0" result="hardAlpha"/>
<feOffset dx="1" dy="1"/>
<feGaussianBlur stdDeviation="0.5"/>
<feComposite in2="hardAlpha" operator="arithmetic" k2="-1" k3="1"/>
<feColorMatrix type="matrix" values="0 0 0 0 0.242217 0 0 0 0 0.247242 0 0 0 0 0.247101 0 0 0 1 0"/>
<feBlend mode="normal" in2="effect3_innerShadow_1_225" result="effect4_innerShadow_1_225"/>
</filter>
<clipPath id="clip0_1_225">
<rect class='color-changeable' width="20" height="120" fill="white" transform="matrix(0 1 -1 0 120 0)"/>
</clipPath>
</defs>
</svg>
